<?xml version="1.0" encoding="UTF-8" standalone="no"?>
<!-- Created with Inkscape (http://www.inkscape.org/) -->

<svg
   width="18.477251mm"
   height="18.15748mm"
   viewBox="0 0 18.477251 18.15748"
   version="1.1"
   id="svg12956"
   xmlns="http://www.w3.org/2000/svg"
   xmlns:svg="http://www.w3.org/2000/svg">
  <defs
     id="defs12953" />
  <g
     id="layer1"
     transform="translate(-45.894632,-142.60518)">
    <path
       id="path13504"
       style="font-style:normal;font-weight:bold;font-size:11.2889px;font-family:Montserrat;-inkscape-font-specification:'Montserrat Bold';text-align:end;text-anchor:end;fill:#6a59a3;fill-opacity:1;stroke-width:1.2;stroke-dashoffset:13.6063;paint-order:stroke markers fill"
       d="m 60.793302,160.76266 q -1.682046,0 -2.630314,-0.93698 -0.948267,-0.93698 -0.948267,-2.67547 v -4.42525 h 1.828802 v 4.35752 q 0,1.12889 0.462844,1.6256 0.462845,0.49671 1.298224,0.49671 0.835379,0 1.298224,-0.49671 0.462843,-0.49671 0.462843,-1.6256 v -4.35752 h 1.806225 v 4.42525 q 0,1.73849 -0.948268,2.67547 -0.948268,0.93698 -2.630313,0.93698 z m -14.89867,-0.21411 v -7.90224 h 1.512713 l 3.364092,5.57672 h -0.801512 l 3.307648,-5.57672 h 1.501423 l 0.02258,7.90224 h -1.715911 l -0.01129,-5.27192 h 0.316088 l -2.641602,4.43654 h -0.82409 l -2.698047,-4.43654 h 0.383823 v 5.27192 z m 14.830937,-9.7702 q -0.948268,0 -1.817513,-0.24836 -0.869246,-0.25964 -1.399824,-0.66604 l 0.62089,-1.37725 q 0.508,0.36124 1.196623,0.59831 0.699912,0.22578 1.411113,0.22578 0.541867,0 0.869245,-0.1016 0.338667,-0.11289 0.496711,-0.3048 0.158045,-0.19191 0.158045,-0.44027 0,-0.31609 -0.248356,-0.49671 -0.248356,-0.19191 -0.654756,-0.3048 -0.4064,-0.12418 -0.903112,-0.22578 -0.485423,-0.11289 -0.982134,-0.27093 -0.485423,-0.15805 -0.891823,-0.4064 -0.406401,-0.24836 -0.666046,-0.65476 -0.248355,-0.4064 -0.248355,-1.03858 0,-0.67733 0.361244,-1.23049 0.372534,-0.56444 1.106313,-0.89182 0.745067,-0.33867 1.862668,-0.33867 0.745068,0 1.467557,0.18062 0.72249,0.16934 1.275646,0.51929 l -0.564445,1.38854 q -0.553156,-0.31609 -1.106312,-0.46285 -0.553156,-0.15804 -1.083735,-0.15804 -0.530578,0 -0.869245,0.12418 -0.338667,0.12418 -0.485423,0.32738 -0.146755,0.19191 -0.146755,0.45155 0,0.3048 0.248355,0.49671 0.248356,0.18063 0.654757,0.29351 0.4064,0.11289 0.891823,0.22578 0.496711,0.11289 0.982134,0.25965 0.496712,0.14675 0.903112,0.39511 0.406401,0.24835 0.654756,0.65476 0.259645,0.4064 0.259645,1.02729 0,0.66604 -0.372534,1.2192 -0.372533,0.55315 -1.117601,0.89182 -0.733778,0.33867 -1.862668,0.33867 z m -10.366175,0 q -0.936979,0 -1.738491,-0.3048 -0.790223,-0.3048 -1.377246,-0.85796 -0.575734,-0.55316 -0.903112,-1.29822 -0.316089,-0.74507 -0.316089,-1.62561 0,-0.88053 0.316089,-1.6256 0.327378,-0.74506 0.914401,-1.29822 0.587023,-0.55316 1.377246,-0.85796 0.790223,-0.3048 1.715913,-0.3048 0.936978,0 1.715913,0.3048 0.790223,0.3048 1.365956,0.85796 0.587023,0.55316 0.914401,1.29822 0.327378,0.73378 0.327378,1.6256 0,0.88054 -0.327378,1.6369 -0.327378,0.74506 -0.914401,1.29822 -0.575733,0.54187 -1.365956,0.84667 -0.778935,0.3048 -1.704624,0.3048 z m -0.01129,-1.55787 q 0.530578,0 0.970845,-0.18062 0.451556,-0.18063 0.790223,-0.51929 0.338667,-0.33867 0.51929,-0.80152 0.191911,-0.46284 0.191911,-1.02729 0,-0.56444 -0.191911,-1.02729 -0.180623,-0.46284 -0.51929,-0.80151 -0.327378,-0.33866 -0.778934,-0.51929 -0.451556,-0.18062 -0.982134,-0.18062 -0.530579,0 -0.982135,0.18062 -0.440267,0.18063 -0.778934,0.51929 -0.338667,0.33867 -0.530578,0.80151 -0.180623,0.46285 -0.180623,1.02729 0,0.55316 0.180623,1.02729 0.191911,0.46285 0.519289,0.80152 0.338667,0.33866 0.790223,0.51929 0.451556,0.18062 0.982135,0.18062 z" />
  </g>
</svg>
