<?xml version="1.0" encoding="UTF-8" standalone="no"?>
<!-- Created with Inkscape (http://www.inkscape.org/) -->

<svg
   width="177.22858mm"
   height="44.712528mm"
   viewBox="0 0 177.22858 44.712528"
   version="1.1"
   id="svg1"
   xml:space="preserve"
   xmlns="http://www.w3.org/2000/svg"
   xmlns:svg="http://www.w3.org/2000/svg"><defs
     id="defs1" /><path
     style="fill:#ffffff;fill-opacity:1"
     d="m 179.58432,176.86696 c -0.26139,-0.92229 -0.42782,-2.16749 -0.42782,-3.20105 0,-0.70931 -0.0701,-1.2296 -0.16563,-1.2296 -0.0911,0 -0.16563,-0.13995 -0.16563,-0.31099 0,-0.59767 -0.37249,-0.69971 -1.30712,-0.3581 -2.04643,0.748 -5.25911,0.85216 -7.637,0.24761 -1.46762,-0.37312 -3.53123,-1.39421 -4.67136,-2.31141 -1.04604,-0.8415 -2.34675,-2.48158 -2.9615,-3.73416 -0.22016,-0.44858 -0.45619,-0.81677 -0.52451,-0.81818 -0.0683,-0.001 -0.12423,0.28342 -0.12423,0.63297 0,1.14734 -0.48125,3.87049 -0.7623,4.3135 -0.87844,1.38463 -2.45813,2.14213 -3.82549,1.8344 -1.48572,-0.33437 -2.20756,-0.99085 -3.22793,-2.93567 -0.77348,-1.47425 -1.6394,-3.08456 -2.1804,-4.05482 -0.24128,-0.43271 -0.61449,-1.10352 -0.82935,-1.49068 -0.3634,-0.65481 -0.62072,-1.10882 -1.40815,-2.48448 -0.16947,-0.29607 -0.55255,-0.94825 -0.8513,-1.44928 -0.29874,-0.50104 -0.67277,-1.13458 -0.83117,-1.40787 -1.7549,-3.02779 -4.64667,-7.52666 -4.84172,-7.53252 -0.18692,-0.006 -0.15292,8.55683 0.0434,10.92797 0.23963,2.8944 0.47984,5.03916 0.70123,6.26111 0.32087,1.77102 -0.26388,3.16215 -1.73972,4.13881 -0.56494,0.37386 -0.86057,0.44897 -1.76714,0.44897 -1.03654,0 -1.476,-0.13469 -2.44815,-0.75033 -0.32726,-0.20725 -0.40665,-0.19306 -0.75602,0.13516 -0.2147,0.2017 -0.50194,0.36672 -0.63831,0.36672 -0.13637,0 -0.41147,0.15235 -0.61133,0.33854 -0.33408,0.31125 -0.35855,0.4645 -0.30347,1.90062 0.0513,1.33636 0.0173,1.60068 -0.23523,1.8292 -0.16234,0.14691 -0.41968,0.24194 -0.57188,0.21118 -0.37244,-0.0753 -0.73617,-1.18372 -0.73922,-2.25279 -0.003,-1.05145 -0.16615,-1.36715 -1.2613,-2.44083 -1.06537,-1.04448 -1.29988,-1.43676 -1.56372,-2.61568 -0.11684,-0.52213 -0.29355,-1.01046 -0.39269,-1.08519 -0.1705,-0.12853 -0.9446,-0.31183 -2.83035,-0.67019 -1.87876,-0.35703 -4.27456,-0.53803 -6.44251,-0.48673 l -2.30172,0.0545 -0.19952,0.74534 c -0.10974,0.40994 -0.2958,1.15528 -0.41346,1.65632 -0.30876,1.3147 -1.02027,2.26874 -2.04936,2.74791 -1.29329,0.60217 -2.74237,0.49118 -3.95426,-0.30288 -0.41986,-0.2751 -0.47279,-0.27328 -1.20714,0.0415 -0.97107,0.41624 -1.65662,0.41562 -2.77422,-0.003 -1.68525,-0.63053 -2.33802,-1.78458 -2.48245,-4.38877 -0.15243,-2.74827 -0.94669,-4.95183 -2.33369,-6.47442 l -0.68646,-0.75358 -0.74534,0.32693 c -0.40994,0.17981 -1.43478,0.49187 -2.277436,0.69346 -1.860115,0.44502 -1.770888,0.12973 -1.006776,3.5575 0.101536,0.45549 0.36941,1.23465 0.595275,1.73147 0.558007,1.22739 0.629627,1.95832 0.291622,2.97596 -0.365264,1.09971 -0.930477,1.7582 -1.880679,2.19107 -1.03756,0.47266 -1.853087,0.55676 -2.771583,0.28579 -2.188072,-0.64551 -3.219086,-2.80947 -4.231811,-8.88201 -0.110145,-0.66046 -0.262862,-1.20084 -0.33937,-1.20084 -0.07651,0 -0.139105,0.14628 -0.139105,0.32506 0,0.32113 -0.506207,1.85329 -0.877615,2.65632 -0.465037,1.00546 -1.769697,2.81137 -2.676455,3.70474 -3.325351,3.27629 -8.294883,4.40929 -12.947519,2.9519 -3.678556,-1.15226 -7.082005,-4.91833 -8.635177,-9.5552 -0.318812,-0.95179 -0.424606,-1.35333 -0.894592,-3.39545 -0.128154,-0.55684 -0.208847,-2.06998 -0.207574,-3.89235 0.002,-2.87179 0.141707,-4.04518 0.713805,-5.99552 0.20799,-0.70906 0.03834,-0.81828 -1.472874,-0.94825 -0.683232,-0.0588 -1.584173,-0.1469 -2.002092,-0.19587 l -0.759852,-0.089 -0.192531,2.29793 c -0.365192,4.35872 -0.182979,11.16502 0.464563,17.35314 0.196894,1.88158 0.0872,2.57609 -0.556767,3.5252 -0.600197,0.8846 -1.468067,1.38184 -2.601984,1.49079 -1.301265,0.12504 -2.80073,-0.64188 -3.415801,-1.74704 -0.869133,-1.56166 -1.505307,-9.88401 -1.289618,-16.87062 0.07278,-2.35762 0.140296,-4.88285 0.150027,-5.61163 l 0.01769,-1.32506 -1.739135,0.0477 c -0.956525,0.0262 -2.515542,0.15986 -3.464484,0.29695 -1.557396,0.22499 -2.131169,0.21802 -3.036569,-0.0369 -0.268439,-0.0756 -0.289956,0.14255 -0.291215,2.95233 -7.47e-4,1.66867 -0.07395,3.66749 -0.162668,4.44182 -0.08872,0.77433 -0.179296,3.56936 -0.201278,6.21119 -0.03752,4.50874 -0.01738,4.88853 0.328301,6.19255 0.583926,2.20274 0.444722,3.16365 -0.636748,4.39537 -0.664622,0.75697 -1.35768,1.08913 -2.272445,1.08913 -2.087015,0 -3.623842,-1.32634 -3.963736,-3.42087 -0.05019,-0.30928 -0.158095,-0.60365 -0.239787,-0.65414 -0.08169,-0.0505 -0.581599,0.30536 -1.110904,0.79078 -1.71573,1.57346 -3.716267,2.52905 -6.397799,3.056 -1.533997,0.30145 -5.586526,0.29399 -7.333755,-0.0135 -1.334488,-0.23485 -1.858816,-0.20839 -1.858816,0.0938 0,0.0814 -0.149069,0.14791 -0.331264,0.14791 -0.29369,0 -0.331264,0.11042 -0.331264,0.97351 0,1.06199 -0.222114,1.40887 -0.843061,1.31665 -0.449698,-0.0668 -0.807032,-1.13093 -0.810743,-2.41438 -0.0014,-0.47826 -0.07705,-0.86957 -0.168147,-0.86957 -0.10296,0 -0.165632,0.92754 -0.165632,2.45135 0,2.57782 -0.07162,2.84887 -0.752799,2.84887 -0.749308,0 -0.90352,-0.44804 -0.90352,-2.62503 0,-1.8522 -0.03325,-2.07191 -0.401901,-2.6559 -0.221046,-0.35016 -0.426015,-0.88135 -0.455488,-1.18044 -0.04659,-0.47274 -0.194231,-0.62759 -1.130194,-1.18529 -0.592134,-0.35283 -1.5001,-1.08381 -2.017702,-1.62441 -0.775512,-0.80996 -0.964292,-1.12266 -1.072937,-1.77725 -0.245559,-1.4795 0.138677,-2.70791 1.131779,-3.61831 0.874354,-0.80154 1.394664,-0.98662 2.741404,-0.97512 l 1.225416,0.0105 -0.10876,-0.42454 c -0.573338,-2.23801 -1.078408,-6.36318 -1.215323,-9.92619 l -0.104165,-2.71075 -1.159423,-0.0366 c -1.299381,-0.041 -1.897847,-0.28959 -2.676476,-1.11163 -1.538057,-1.62381 -1.3699266,-4.38687 0.343139,-5.63915 0.798282,-0.58356 1.077266,-0.70297 2.830232,-1.21139 3.577995,-1.03774 8.006847,-1.56352 10.517626,-1.24861 3.479085,0.43635 5.556882,1.29049 7.401333,3.04254 1.790636,1.70093 2.780648,3.69463 3.213606,6.47162 0.224999,1.44315 0.0657,2.6965 -0.547454,4.30732 -0.177407,0.46607 -0.335037,0.92401 -0.350288,1.01764 -0.01525,0.0936 0.478664,0.64563 1.097589,1.22666 0.878017,0.82425 1.169213,1.01255 1.325055,0.85683 0.141521,-0.14141 0.223874,-1.48858 0.282553,-4.62211 0.07285,-3.89045 0.120271,-4.49791 0.394139,-5.04911 0.659839,-1.32804 2.356593,-2.26673 3.705933,-2.05023 1.328528,0.21316 1.256061,0.23455 1.312421,-0.38738 0.02889,-0.31884 0.07135,-0.72878 0.09436,-0.91097 0.02807,-0.22231 -0.03989,-0.31182 -0.206627,-0.27213 -1.604928,0.38197 -2.767755,0.0887 -3.813561,-0.96167 -0.914342,-0.91836 -1.155397,-1.65269 -1.155397,-3.51971 0,-2.05038 0.262668,-3.13987 0.950825,-3.94383 0.806415,-0.94211 1.630496,-1.32339 2.860336,-1.32339 1.166963,0 1.672193,0.22332 2.49842,1.10436 0.925535,0.98694 1.016981,1.38235 0.952569,4.11894 l -0.05716,2.42851 0.579712,-0.0868 c 0.318841,-0.0477 1.213254,-0.19702 1.987583,-0.33179 2.014458,-0.35062 4.915904,-0.46562 7.122172,-0.28231 1.834148,0.15239 2.605081,0.24976 5.300221,0.6694 2.766969,0.43082 3.677164,0.52599 6.294012,0.6581 1.50311,0.0759 2.961049,0.18855 3.239866,0.25038 0.392622,0.0871 0.691427,0.005 1.325055,-0.36482 2.289128,-1.33535 3.305298,-1.61017 5.952706,-1.60994 2.26633,2e-4 3.571688,0.2802 4.971309,1.06631 0.762124,0.42806 0.93523,0.41647 1.415571,-0.0948 0.953386,-1.01483 2.933937,-1.28896 4.193891,-0.58047 0.353571,0.19882 0.76351,0.31422 0.910975,0.25646 1.474012,-0.57739 8.891549,-0.8577 11.034193,-0.41699 1.770492,0.36417 3.130712,0.69759 3.892352,0.9541 4.1616,1.40156 6.71729,4.28031 7.26843,8.18722 0.25028,1.77415 -0.28662,4.66653 -1.15233,6.20786 -0.17544,0.31236 -0.31898,0.6599 -0.31898,0.77232 0,0.11242 0.35497,0.65053 0.78883,1.1958 0.92281,1.15977 1.64327,2.31841 2.16134,3.47587 0.84011,1.87693 0.71966,1.98993 1.85384,-1.73914 0.5429,-1.785 2.65649,-8.08031 3.30876,-9.8551 1.23847,-3.36985 3.04952,-6.60319 4.41714,-7.88613 2.20438,-2.06788 4.98322,-1.92123 7.11486,0.37547 1.62715,1.75315 3.43359,5.65351 5.37402,11.60327 0.49643,1.52216 0.97713,2.74591 1.06823,2.71946 0.0992,-0.0288 0.2103,-1.4711 0.277,-3.59571 0.28698,-9.14175 1.63674,-12.16048 5.4373,-12.16048 1.03186,0 1.40585,0.0803 2.2083,0.47436 1.20949,0.59389 3.26587,2.60107 4.8593,4.74304 1.42318,1.9131 5.51641,8.14015 5.52411,8.40384 0.002,0.0694 0.14944,0.31254 0.32758,0.54029 l 0.3239,0.41408 0.004,-0.90101 c 0.006,-1.45249 -0.6958,-4.88844 -1.50339,-7.36112 -0.59363,-1.81756 -0.6101,-2.6733 -0.0719,-3.73535 0.68615,-1.35405 1.79115,-1.99842 3.427,-1.99842 1.28232,0 2.25004,0.58245 3.02713,1.82195 1.04486,1.66659 2.71819,9.43069 2.75557,12.78557 0.006,0.57458 0.0673,1.18664 0.13536,1.36012 0.11995,0.3058 0.13349,0.3049 0.44385,-0.0295 0.17607,-0.18969 0.44542,-0.55803 0.59855,-0.81852 0.24115,-0.41022 0.2488,-0.53932 0.0572,-0.96432 -0.61909,-1.37295 -0.76496,-3.11333 -0.41181,-4.9132 1.12677,-5.7427 2.987,-8.56961 6.50068,-9.87876 1.41365,-0.52671 4.04119,-0.50636 5.77761,0.0448 0.69648,0.22105 1.50815,0.52696 1.80369,0.67979 0.51063,0.26406 0.54557,0.2626 0.70236,-0.0292 0.33929,-0.63156 1.55862,-1.64817 2.21139,-1.84374 1.47705,-0.44254 2.62705,-0.1288 3.79044,1.03411 0.91655,0.91618 1.23543,1.8067 1.23721,3.45511 5.1e-4,0.47132 0.0663,1.1178 0.14632,1.43665 0.08,0.31884 0.23731,1.13872 0.34965,1.82195 0.11234,0.68323 0.26134,1.47452 0.33112,1.75842 0.22276,0.9064 -0.13812,2.13901 -0.86955,2.96996 -0.80475,0.91425 -1.52421,1.23437 -2.77421,1.23437 -1.29025,0 -1.95152,-0.31307 -3.32646,-1.57485 -2.19807,-2.01717 -4.38798,-3.43548 -5.99383,-3.88194 -0.70735,-0.19666 -0.8234,-0.18971 -1.10629,0.0663 -0.52947,0.47916 -1.29878,2.52337 -1.32738,3.52712 -0.004,0.1569 0.60989,0.20704 2.53668,0.20704 2.72747,0 3.25512,0.10279 4.35112,0.84764 1.42335,0.96733 1.86457,3.30481 0.90842,4.81252 -0.7682,1.21132 -2.04358,1.95891 -3.34188,1.95891 -0.70436,0 -2.44856,0.36715 -3.54927,0.74711 -0.85868,0.29641 -1.67476,0.79419 -2.02372,1.23439 -0.31609,0.39874 -0.24673,1.59279 0.14036,2.41628 0.82344,1.75178 2.58812,2.66395 4.90087,2.53327 2.96241,-0.1674 5.26726,-2.58228 5.82479,-6.10289 0.32409,-2.04646 0.51406,-2.69924 0.95302,-3.27475 1.4913,-1.9552 4.3263,-2.04354 5.91765,-0.18441 0.59553,0.69575 0.9347,1.60173 0.93015,2.48458 -0.009,1.67906 -0.85766,5.04428 -1.68023,6.66006 -0.35472,0.69676 -1.66066,2.65723 -2.28104,3.42427 -0.1842,0.22775 -0.33656,0.61905 -0.33859,0.86957 -0.002,0.25052 -0.0662,0.45549 -0.14273,0.45549 -0.38204,0 -0.54548,0.98494 -0.50222,3.02649 0.0478,2.25601 -0.0273,2.49624 -0.74969,2.3989 -0.42215,-0.0569 -0.56148,-0.36133 -0.68366,-1.49387 -0.17684,-1.63915 -0.40986,-0.86216 -0.40986,1.36664 0,1.71699 -0.0506,2.18224 -0.26028,2.39189 -0.31242,0.31242 -0.72144,0.33955 -0.80259,0.0532 z M 80.13261,164.0985 c 1.560231,-0.76567 2.595975,-2.23118 3.120879,-4.41585 0.477911,-1.98908 1.511019,-2.81574 3.518928,-2.81574 1.445421,0 1.99667,0.22558 2.844481,1.164 0.326928,0.36187 0.631876,0.65795 0.677662,0.65795 0.04579,0 0.08325,-1.90063 0.08325,-4.22361 0,-2.70532 -0.05954,-4.22361 -0.165632,-4.22361 -0.0911,0 -0.165632,0.18895 -0.165632,0.4199 0,0.76904 -1.010068,2.05592 -2.022392,2.57664 -0.757438,0.3896 -2.216666,0.41771 -3.076109,0.0592 -0.82823,-0.34544 -1.599821,-1.12113 -2.123904,-2.13518 -1.677613,-3.24601 -4.693371,-5.27482 -6.989395,-4.70203 -2.818726,0.7032 -4.743714,5.1428 -4.171154,9.61994 0.409361,3.20099 1.27894,5.37986 2.729264,6.8386 1.259665,1.26698 2.018942,1.57686 3.728193,1.52155 0.93808,-0.0304 1.609317,-0.14442 2.011564,-0.34181 z m -50.721186,-0.13604 c 0.402326,-0.12201 0.989284,-0.46302 1.30435,-0.75781 0.549593,-0.51422 0.569667,-0.57434 0.494479,-1.481 -0.06753,-0.8143 -0.152011,-1.00651 -0.610727,-1.38946 -1.204487,-1.00555 -3.209609,-1.69641 -5.535234,-1.90716 L 23.79378,158.3119 v 0.43767 c 0,0.50355 0.722395,3.30152 1.112748,4.30988 0.485718,1.25472 0.596237,1.31346 2.282706,1.21334 0.819878,-0.0487 1.819863,-0.18833 2.22219,-0.31033 z m 98.796896,-4.90093 c -0.25144,-1.08564 -2.21982,-6.81393 -2.7313,-7.94852 -0.17408,-0.38617 -0.31652,-0.80562 -0.31652,-0.9321 0,-0.12649 -0.11056,-0.32174 -0.2457,-0.43389 -0.20434,-0.16959 -0.27613,-0.1242 -0.42646,0.26957 -1.15568,3.02733 -3.12236,8.89383 -3.03106,9.04154 0.0434,0.0702 0.72665,0.13415 1.51837,0.14213 0.79173,0.008 1.81218,0.0726 2.26767,0.14351 0.45549,0.0709 1.33268,0.13895 1.94933,0.15112 l 1.12117,0.0221 z m -29.101223,-5.36256 c 2.563553,-1.03235 3.858733,-2.44575 3.858733,-4.21096 0,-0.78912 -0.57656,-1.50606 -1.57351,-1.95663 -1.05746,-0.47791 -1.422067,-0.59286 -2.213614,-0.69786 l -0.819089,-0.10865 -0.173196,0.88881 c -0.158931,0.81562 -0.265244,3.57144 -0.2116,5.48511 0.02434,0.86846 0.215046,0.96955 1.132276,0.60018 z m -73.40855,-3.30322 c 1.650698,-0.43677 2.156536,-0.86479 1.984763,-1.67942 -0.315501,-1.49626 -1.135505,-2.2408 -2.862483,-2.59905 -1.418819,-0.29432 -1.965534,-0.24427 -2.082075,0.1906 -0.136386,0.50892 -0.131298,4.01728 0.006,4.1546 0.173504,0.1735 2.220632,0.12726 2.953769,-0.0667 z m 64.6807,-1.35494 c 7.91e-4,-0.20497 0.04844,-0.76398 0.105887,-1.24224 l 0.104447,-0.86957 h -0.492362 c -0.270798,0 -0.534019,0.0417 -0.584935,0.0926 -0.05092,0.0509 0.04846,0.47843 0.220842,0.95004 0.17238,0.47161 0.313417,0.98896 0.313417,1.14967 0,0.16071 0.07453,0.29219 0.165632,0.29219 0.0911,0 0.16628,-0.1677 0.167072,-0.37267 z"
     id="path1"
     transform="translate(-10.207084,-132.35303)" /></svg>
