<?xml version="1.0" encoding="UTF-8" standalone="no"?>
<!-- Created with Inkscape (http://www.inkscape.org/) -->

<svg
   width="101.29291mm"
   height="47.322441mm"
   viewBox="0 0 101.29291 47.322441"
   version="1.1"
   id="svg5"
   xml:space="preserve"
   xmlns="http://www.w3.org/2000/svg"
   xmlns:svg="http://www.w3.org/2000/svg"><defs
     id="defs2" /><g
     id="layer1"
     transform="translate(-30.724144,-36.643609)"><path
       style="fill:#ffffff;fill-opacity:1;stroke-width:0.110825"
       d="m 30.724144,60.304829 v -23.66122 l 5.790626,8.4e-4 c 3.184844,4.2e-4 6.214532,0.049 6.732641,0.10777 1.334836,0.15151 2.315017,0.66474 3.496452,1.83077 1.037247,1.02372 1.439912,1.59357 1.84954,2.61747 0.664051,1.65984 0.693991,2.02742 0.693991,8.52054 0,4.3081 -0.03876,6.15642 -0.141753,6.76035 -0.499118,2.92663 -1.980012,4.97824 -4.416349,6.11834 l -0.717441,0.33573 -3.674234,0.10192 c -2.020828,0.0561 -3.694211,0.1219 -3.718628,0.14632 -0.02441,0.0244 -0.0717,4.71044 -0.105079,10.41339 l -0.06068,10.369 h -2.86454 -2.864541 z m 11.645262,-4.10054 c 0.258707,-0.18286 0.574561,-0.53196 0.701897,-0.77577 0.222637,-0.42629 0.232833,-0.62617 0.265703,-5.2088 0.0188,-2.62102 0.0039,-4.97364 -0.03323,-5.22804 -0.08091,-0.55519 -0.529821,-1.25656 -1.049791,-1.64018 l -0.379542,-0.28001 h -2.69369 -2.693691 v 6.76585 6.76585 l 2.705983,-0.0332 2.705983,-0.0332 z m 11.849717,10.0297 v -17.73206 h 2.88146 2.881459 v 17.73206 17.73206 h -2.881459 -2.88146 z m 20.281043,17.3363 c -0.51811,-0.21339 -1.041758,-0.43416 -1.163665,-0.4906 -0.356511,-0.16503 -3.209292,-1.26721 -4.82687,-1.86487 -3.026455,-1.11821 -3.34141,-1.14384 -4.123245,-0.3355 -0.592455,0.61253 -0.640645,0.36037 -0.140794,-0.73675 0.311944,-0.68468 0.691285,-1.08016 1.375419,-1.43394 l 0.353955,-0.18304 -0.03188,-3.74592 -0.03188,-3.74591 -0.525696,-0.86009 c -0.289132,-0.47305 -0.498142,-0.90466 -0.464467,-0.95915 0.03368,-0.0545 0.224857,-0.0991 0.424848,-0.0991 0.542348,0 2.026479,-0.40591 2.781823,-0.76082 0.936865,-0.4402 3.095726,-1.94688 4.473339,-3.12197 0.144086,-0.1229 0.352151,-0.27172 0.462367,-0.33071 0.110213,-0.059 0.266618,-0.17101 0.347564,-0.24896 0.223864,-0.21558 1.306439,-0.90858 1.84659,-1.18209 0.28274,-0.14317 0.886806,-0.29327 1.468437,-0.36488 l 0.988096,-0.12166 v -4.01371 c 0,-3.08009 -0.03221,-4.03856 -0.138532,-4.12056 -0.07619,-0.0588 -0.362953,-0.19365 -0.637245,-0.29973 -0.274291,-0.10609 -0.648327,-0.26199 -0.831192,-0.34644 -0.883086,-0.40787 -4.087804,-1.58815 -4.171582,-1.53638 -0.242092,0.14962 0.02032,6.42685 0.304496,7.28396 0.115771,0.34919 0.353998,0.70307 0.690105,1.02514 0.493611,0.47299 0.502202,0.49186 0.224002,0.49186 -0.360569,0 -0.900322,-0.22909 -1.489568,-0.63222 -0.40099,-0.27433 -0.721797,-0.60357 -1.81048,-1.85805 -1.486895,-1.71334 -2.612805,-2.49505 -3.833773,-2.66174 -0.958707,-0.13088 -0.990835,-0.15139 -0.653221,-0.41696 0.357244,-0.281 0.704572,-1.00907 0.707893,-1.48387 0.0038,-0.54478 0.289927,-0.7596 1.383537,-1.03877 1.700994,-0.43422 2.905816,-1.10389 4.10544,-2.28188 0.925982,-0.90929 1.274786,-1.38537 1.872054,-2.55521 0.28501,-0.55823 0.585769,-1.07104 0.668349,-1.13957 0.11433,-0.0949 0.357914,-0.0417 1.021036,0.22302 1.908607,0.76186 8.429173,3.18415 8.767476,3.25697 0.457801,0.0986 0.984121,-0.20819 1.475842,-0.86015 l 0.35094,-0.4653 -0.0696,0.55003 c -0.07933,0.62687 -0.396261,1.3027 -0.822488,1.75386 -0.30672,0.32467 -0.837898,0.63298 -1.09053,0.63298 -0.123076,0 -0.149209,0.97129 -0.149209,5.54541 v 5.5454 l 0.508886,0.49458 c 0.279883,0.27202 0.579114,0.49458 0.664953,0.49458 0.08583,0 0.156065,0.0748 0.156065,0.16624 0,0.0914 -0.04429,0.16623 -0.09843,0.16623 -0.05414,0 -0.321113,0.21953 -0.593276,0.48784 -0.353579,0.34858 -0.514952,0.60958 -0.5653,0.91431 -0.03874,0.23456 -0.07101,2.95276 -0.07168,6.04044 l -0.0013,5.61397 0.518458,0.17666 c 0.676052,0.23035 1.093441,0.21985 1.670343,-0.042 0.679244,-0.30832 0.617583,-0.0613 -0.197877,0.79267 -2.604494,2.72754 -3.156322,3.37647 -3.79445,4.46204 l -0.307382,0.52291 -1.865766,-1.87892 -1.86577,-1.87892 -0.185772,0.31449 c -0.102174,0.17297 -0.249461,0.37864 -0.327303,0.45705 -0.204026,0.20551 -1.090212,1.6962 -1.451833,2.44219 -0.169901,0.35049 -0.315524,0.6355 -0.323609,0.63337 -0.0081,-0.002 -0.438608,-0.17848 -0.956718,-0.39188 z m 3.187041,-12.3861 c 0.02702,-6.80696 0.01835,-7.17917 -0.16624,-7.12493 -0.107117,0.0315 -0.394238,0.0926 -0.638057,0.13594 -1.505862,0.26738 -2.948425,1.41072 -4.049465,3.2095 -0.916553,1.49738 -0.882264,1.28946 -0.882264,5.34984 v 3.62071 l 0.748072,0.25955 c 0.683219,0.23706 2.028408,0.75236 3.906593,1.4965 0.396203,0.15698 0.795174,0.27408 0.886605,0.26023 0.14546,-0.022 0.1698,-0.92293 0.194756,-7.20734 z m 14.807027,12.63911 c -0.215872,-0.23034 -2.73386,-2.57753 -3.171175,-2.95606 l -0.415596,-0.35974 0.01106,-5.55749 c 0.0061,-3.05663 0.0446,-5.67737 0.0856,-5.82388 0.06044,-0.21597 0.24577,-0.32326 0.979329,-0.56692 0.991845,-0.32946 3.246215,-1.71994 3.246215,-2.00224 0,-0.19699 -3.614655,-1.54206 -4.144037,-1.54206 -0.423433,0 -0.775194,0.1696 -1.128823,0.54428 -0.177704,0.18827 -0.360666,0.34232 -0.406578,0.34232 -0.269839,0 0.08639,-1.1438 0.498352,-1.60016 0.106669,-0.11816 0.193944,-0.24477 0.193944,-0.28135 0,-0.0366 0.269273,-0.22971 0.598386,-0.42917 0.329108,-0.19946 0.631137,-0.47183 0.671172,-0.60525 0.04004,-0.13342 0.102041,-2.2645 0.137791,-4.73573 l 0.065,-4.49314 -0.708465,-0.35556 c -0.675733,-0.33914 -1.092105,-0.64739 -1.405472,-1.04051 -0.119113,-0.14943 -0.103108,-0.25023 0.09621,-0.60596 0.294338,-0.5253 0.94675,-1.54996 1.224291,-1.92285 0.113421,-0.15238 0.287825,-0.42423 0.387566,-0.60412 0.09974,-0.17988 0.249682,-0.3954 0.333209,-0.47892 0.08353,-0.0835 0.151869,-0.19142 0.151869,-0.23976 0,-0.0483 0.148815,-0.25673 0.330704,-0.46309 0.181889,-0.20636 0.331504,-0.4126 0.332476,-0.45832 8.38e-4,-0.0457 0.144409,-0.0831 0.318746,-0.0831 0.204596,0 0.453742,0.1277 0.702746,0.36018 1.506462,1.40653 3.044971,2.24469 4.398244,2.39609 0.502134,0.0562 0.931834,0.121 0.954884,0.14405 0.02304,0.023 -0.279301,0.38602 -0.671897,0.8066 l -0.713809,0.76469 v 4.56911 4.56912 l 0.360184,0.12311 c 0.198099,0.0677 1.469978,0.55452 2.826397,1.0818 1.356419,0.52728 2.503463,0.92145 2.548983,0.87594 0.0455,-0.0455 0.10042,-2.18873 0.12201,-4.76272 l 0.0393,-4.67997 -0.71964,-0.35427 c -0.773552,-0.38082 -1.409112,-0.94346 -1.409112,-1.24743 0,-0.26585 0.1388,-0.50532 1.376912,-2.37546 1.67838,-2.53517 1.76064,-2.61573 2.23172,-2.18541 0.90262,0.82452 1.90428,1.61467 2.45914,1.93986 0.7074,0.4146 1.82324,0.7443 2.52827,0.74704 0.75765,0.003 0.7561,0.10999 -0.0135,0.93447 l -0.71392,0.76481 -2.2e-4,1.89244 c -1.1e-4,1.04084 -0.033,3.12282 -0.0729,4.62662 l -0.0727,2.73418 -0.47154,0.11874 c -0.66488,0.16742 -1.75646,0.75777 -2.71744,1.46966 -0.80128,0.59357 -1.17407,0.94427 -1.08627,1.02189 0.0239,0.0212 0.49234,0.21436 1.04093,0.42936 1.59105,0.62355 3.25195,1.10678 3.54839,1.03238 0.1468,-0.0369 0.49317,-0.2965 0.76971,-0.57701 0.45749,-0.46406 0.50266,-0.48643 0.50113,-0.24827 -0.005,0.83992 -0.78227,1.92515 -1.66811,2.33006 l -0.56665,0.25902 0.0654,3.48137 c 0.0359,1.91475 0.0654,4.34496 0.0654,5.40048 v 1.91912 l 0.43888,0.2239 c 0.57988,0.29583 1.18025,0.28289 1.81637,-0.0392 0.28578,-0.14469 0.5396,-0.23071 0.56404,-0.19117 0.0244,0.0395 -0.26511,0.40188 -0.64344,0.80518 -1.05675,1.12651 -2.57262,2.76999 -2.89623,3.14004 -0.15991,0.18287 -0.53992,0.73604 -0.84446,1.22928 l -0.55372,0.89679 -0.35851,-0.34267 c -0.7381,-0.70547 -2.6894,-2.49132 -3.03649,-2.77903 l -0.36019,-0.29856 v -5.63072 -5.63071 l -1.191371,-0.46529 c -2.290619,-0.89459 -4.128857,-1.55262 -4.337336,-1.55262 -0.195954,0 -0.215218,0.13685 -0.284662,2.02256 -0.04096,1.11241 -0.05884,3.49221 -0.03971,5.28844 l 0.03477,3.26587 0.4433,0.25815 c 0.360654,0.21002 0.553203,0.24817 1.03279,0.20463 0.324216,-0.0294 0.648381,-0.0969 0.720364,-0.14988 0.229079,-0.1687 0.740482,-0.35969 0.738677,-0.27587 -8.38e-4,0.0444 -0.212906,0.31257 -0.471004,0.59591 -0.459891,0.50487 -2.629119,2.83175 -2.968942,3.18472 -0.334901,0.34785 -0.847084,1.07332 -1.202229,1.70285 -0.197722,0.35049 -0.368302,0.63535 -0.379067,0.63303 -0.01077,-0.003 -0.07622,-0.0647 -0.145452,-0.13853 z m 28.053876,-0.30979 c -0.42668,-0.17831 -0.87552,-0.37295 -0.99743,-0.43254 -0.48627,-0.23768 -5.59689,-2.14345 -6.4197,-2.39392 -1.46465,-0.44587 -2.12582,-0.31501 -2.63906,0.52234 -0.42546,0.69413 -0.35013,-0.10209 0.10526,-1.11264 0.2562,-0.56853 0.77518,-1.08252 1.31867,-1.30599 l 0.48576,-0.19974 4.2e-4,-6.16328 4.2e-4,-6.16327 -0.34004,-0.43084 c -0.18702,-0.23696 -0.5367,-0.54844 -0.77706,-0.6922 l -0.43701,-0.26136 0.59664,-0.42724 c 0.50822,-0.36393 0.61655,-0.50586 0.73098,-0.95772 0.0853,-0.33662 0.16773,-2.17069 0.2257,-5.0189 0.0502,-2.46863 0.12393,-4.56982 0.16374,-4.6693 0.0427,-0.10671 0.2627,-0.21107 0.53655,-0.25451 0.63499,-0.10074 2.2455,-0.66198 2.90996,-1.01408 1.51205,-0.80125 2.95116,-2.41482 3.97065,-4.45199 0.22116,-0.44191 0.42454,-0.80348 0.45196,-0.80348 0.0784,0 1.21574,0.42289 2.60716,0.96938 1.72156,0.67616 5.55466,2.10113 6.3592,2.36406 1.14682,0.37479 1.6737,0.23972 2.23706,-0.57348 0.38365,-0.55379 0.48634,-0.38094 0.26112,0.43955 -0.28123,1.02438 -1.18168,2.00928 -1.83704,2.00928 -0.11605,0 -0.14922,0.27174 -0.14922,1.22264 0,1.34923 0.12678,1.81341 0.59611,2.18258 0.38383,0.30192 0.36689,0.36284 -0.10089,0.36284 -0.48649,0 -1.60712,0.36745 -2.26842,0.74379 -0.51688,0.29416 -1.69097,1.2499 -2.01266,1.63837 -0.10122,0.12223 -0.36918,0.42173 -0.59547,0.66554 -0.22628,0.24382 -0.79179,0.88901 -1.25669,1.43377 -2.35658,2.76139 -4.02096,4.10099 -5.55534,4.47128 l -0.38789,0.0936 v 5.57334 5.57335 l 1.32991,0.49221 c 0.73144,0.27072 1.80368,0.66875 2.38274,0.88451 1.21312,0.45201 1.65979,0.59531 1.8556,0.59531 0.10457,0 0.13926,-0.35452 0.13926,-1.42312 0,-1.5746 -0.16008,-2.33567 -0.56519,-2.68701 -0.31833,-0.27608 -0.21021,-0.3705 0.60396,-0.52743 0.65121,-0.12551 1.83072,-0.65533 2.22044,-0.99739 0.11492,-0.10086 0.71338,-0.78151 1.32991,-1.51256 1.16117,-1.37685 1.25317,-1.47649 1.79397,-1.94289 0.55805,-0.48127 1.82056,-0.96247 1.82056,-0.69389 0,0.0588 -0.17331,0.26458 -0.38514,0.45734 -0.79897,0.72704 -0.91309,1.33778 -1.03185,5.52195 -0.0435,1.53401 -0.10759,2.81754 -0.14236,2.8523 -0.0348,0.0348 -0.55798,0.18871 -1.16272,0.34212 -2.98259,0.7566 -5.00153,2.48981 -6.35914,5.45919 -0.32013,0.70019 -0.46201,0.72131 -1.61344,0.24012 z m -1.42303,-19.50588 c 2.31219,-1.28648 4.26777,-3.77343 4.74735,-6.03726 0.16109,-0.76044 0.22632,-2.64537 0.10269,-2.96754 -0.0713,-0.18584 -1.40369,-0.7698 -3.94843,-1.73055 l -1.69509,-0.63997 -0.0711,0.62232 c -0.0951,0.83221 -0.11417,9.1744 -0.0235,10.24742 0.0394,0.46635 0.11692,0.84791 0.17223,0.84791 0.0553,0 0.37742,-0.15405 0.71582,-0.34233 z M 54.219123,42.351119 v -3.26935 h 2.88146 2.881459 v 3.26935 3.26935 h -2.881459 -2.88146 z"
       id="path302" /></g></svg>
