<?xml version="1.0" encoding="UTF-8" standalone="no"?>
<!-- Created with Inkscape (http://www.inkscape.org/) -->

<svg
   width="118.18552mm"
   height="52.191898mm"
   viewBox="0 0 118.18552 52.191899"
   version="1.1"
   id="svg5"
   xml:space="preserve"
   xmlns="http://www.w3.org/2000/svg"
   xmlns:svg="http://www.w3.org/2000/svg"><defs
     id="defs2" /><path
     id="path3179-7-63-8-4-7-0"
     style="font-size:36.3125px;font-family:'Ubuntu Mono';-inkscape-font-specification:'Angel wish';fill:#ffffff;fill-opacity:1;stroke:none;stroke-width:2.08992;stroke-linecap:round;stroke-dashoffset:13.6063;paint-order:stroke markers fill"
     d="m 147.06239,107.59775 c -1.92253,0.80951 -3.61726,1.54319 -5.08445,2.2009 -0.65772,0.25297 -1.2894,0.53153 -1.89652,0.83509 -0.55652,0.25297 -1.08829,0.50513 -1.59422,0.75809 -0.55652,0.25296 -1.08777,0.48138 -1.5937,0.68368 -0.7083,0.20231 -1.3664,0.32874 -1.97352,0.37931 -0.55652,0.0506 -1.11314,0.0251 -1.66967,-0.076 -0.55652,-0.10115 -1.03703,-0.37922 -1.44177,-0.83457 0.30356,0.55655 0.70898,1.06189 1.21491,1.51722 0.40474,0.40475 0.93548,0.75942 1.59319,1.06298 0.6577,0.35413 1.41679,0.53124 2.27686,0.53124 v 12.03027 c -0.65636,2.32865 -1.71036,3.0025 -3.51607,3.77083 1.83392,0.63691 3.01649,2.5742 3.51607,4.63693 v 13.84411 c -2.12491,0.65771 -3.61664,1.54261 -4.47673,2.65565 -0.80948,1.16364 -1.3164,2.27689 -1.51877,3.33934 -0.20237,1.26476 -0.076,2.58051 0.3793,3.94652 -0.25296,-0.96125 -0.30316,-1.89741 -0.15141,-2.80809 0.15179,-0.86002 0.4552,-1.61915 0.91054,-2.27687 0.50593,-0.65771 1.16352,-1.18895 1.97301,-1.5937 0.86008,-0.40486 1.8475,-0.6072 2.96054,-0.6072 1.61898,0 3.00923,0.43078 4.17287,1.29088 1.16364,0.86009 2.17591,1.79571 3.03599,2.80758 0.91067,1.21425 1.74587,2.57962 2.50476,4.09743 0.30357,-0.45533 0.73384,-0.80848 1.29036,-1.06144 l 10.09241,-3.87056 c 0.86008,-0.20231 1.64504,-0.22869 2.35334,-0.077 0.55653,0.10115 1.08726,0.35383 1.59319,0.75861 0.50593,0.40475 0.75912,1.06233 0.75912,1.97301 0.15177,-0.70832 0.10207,-1.39126 -0.15089,-2.04897 -0.25297,-0.55652 -0.70861,-1.18926 -1.36633,-1.89756 -0.6577,-0.65772 -1.72124,-1.26404 -3.18843,-1.82056 0.0656,-7.35208 -0.11773,-11.74729 0.50643,-14.14281 l -7.4073,2.77141 -0.004,9.77925 -7.36131,2.80809 v -17.20101 -1.67484 l 5.37384,0.92759 7.1422,-2.36058 -6.74998,-1.12758 c -2.77535,1.09899 -4.37666,1.46135 -5.76606,1.75545 v -0.50177 -4.51549 -11.55847 l 7.36131,-2.88354 v 5.91075 1.94613 c 0,1.31541 -0.12633,1.47306 -0.3793,2.28255 -0.0575,0.22981 -0.12099,0.44366 -0.19069,0.64492 -0.97746,1.94454 -1.59735,2.09425 -3.92172,3.14606 3.83244,-0.26295 4.08576,-0.70672 6.71483,-3.90674 1.89632,-2.14097 4.37104,-1.64995 6.95875,-1.65778 -0.40474,-0.10116 -0.88524,-0.35334 -1.44177,-0.75809 -0.50593,-0.45533 -0.78399,-1.03834 -0.83458,-1.74666 v -1.76372 c 2.1249,-0.65772 3.61666,-1.5426 4.47673,-2.65565 0.80948,-1.16364 1.3159,-2.27692 1.51826,-3.33933 0.20237,-1.26484 0.0765,-2.58001 -0.37879,-3.94601 0.25296,0.96125 0.30265,1.8969 0.15089,2.80758 -0.15179,0.86008 -0.4552,1.61919 -0.91054,2.27686 -0.50593,0.65772 -1.16352,1.18946 -1.973,1.59422 -0.86008,0.40486 -1.84698,0.60668 -2.96003,0.60668 -0.52017,0 -1.01626,-0.045 -1.48931,-0.13384 -0.51499,-0.17388 -1.03064,-0.40646 -1.54564,-0.70074 -1.41661,-0.80951 -2.7059,-1.72086 -3.86954,-2.73265 -1.16363,-1.01186 -2.12567,-1.948 -2.88457,-2.80809 z m -62.5572,10.7971 -2.204827,3.75749 c -2.403498,-2.10081 -3.737808,-2.43917 -4.606575,-2.01013 l 2.315662,-3.62158 c 2.268816,-0.33977 3.470936,0.65317 4.49574,1.87422 z m -6.658445,3.75749 v 7.88735 c 0,0.95302 -0.476517,1.56366 -1.429534,1.83051 v 0.0573 c 0.419328,0.0764 0.76297,0.30499 1.029811,0.68613 0.266846,0.34309 0.399723,0.7238 0.399723,1.14313 v 12.75121 l 3.373346,3.20276 c 0.152484,-0.57179 0.476967,-1.16327 0.97253,-1.77321 0.495568,-0.57182 1.010406,-1.12373 1.544095,-1.65743 0.57181,-0.53365 1.067489,-1.01019 1.486814,-1.42952 0.419323,-0.41933 0.628845,-0.72464 0.628845,-0.91524 l -0.458249,0.39971 c -0.304962,0.26685 -0.666518,0.40097 -1.085846,0.40097 -0.381207,-0.0381 -0.724846,-0.19132 -1.029811,-0.45824 l -0.227883,-0.22796 v -10.29312 c 0,-0.41933 0.113713,-0.80004 0.342439,-1.14313 0.266846,-0.38121 0.610483,-0.62905 1.029811,-0.74341 -0.419328,-0.11446 -0.762965,-0.34307 -1.029811,-0.68613 -0.228726,-0.34309 -0.342439,-0.72505 -0.342439,-1.14438 v -4.8091 z m -14.784307,-14.55454 -1.138316,1.28952 c -0.758902,0.86008 -1.721023,1.79612 -2.884659,2.80799 -1.16365,1.01179 -2.453021,1.92287 -3.869626,2.73238 -0.514999,0.29427 -1.030475,0.52694 -1.545474,0.70092 -0.473052,0.0888 -0.969128,0.13395 -1.489308,0.13395 -1.113047,0 -2.100182,-0.20209 -2.960267,-0.60695 -0.809483,-0.40475 -1.467215,-0.93636 -1.973147,-1.59408 -0.455336,-0.65768 -0.758646,-1.41655 -0.910439,-2.27663 -0.151771,-0.91068 -0.101759,-1.84671 0.151204,-2.80797 -0.455323,1.36601 -0.581442,2.68145 -0.379074,3.94628 0.202367,1.06241 0.708988,2.17572 1.518471,3.33935 0.860078,1.11305 2.351673,1.99799 4.476578,2.65571 v 3.45691 c -0.0506,0.70832 -0.328898,1.29103 -0.834837,1.74636 -0.556528,0.40475 -1.037041,0.65701 -1.44179,0.75816 h 0.986034 c 1.4672,0 2.656546,0.4305 3.567219,1.29058 0.91068,0.86009 1.770623,1.74507 2.580106,2.6557 0.368571,0.41465 0.711646,0.8144 1.061635,1.18584 l -7.11e-4,0.001 c 0.228738,0.27236 0.762476,0.843 1.524952,1.47637 -0.06459,0.0347 -0.131974,0.0702 -0.190073,0.10031 l -1.682629,1.30033 c -2.534322,1.76604 -4.90327,4.21793 -6.721888,4.26056 1.379746,1.80793 1.070148,6.38206 1.152351,15.59527 -1.467193,0.55652 -2.530434,1.16317 -3.188145,1.82089 -0.657711,0.7083 -1.113225,1.34102 -1.366188,1.89753 -0.252962,0.65773 -0.302975,1.34046 -0.15121,2.04877 0,-0.91067 0.253303,-1.56839 0.759235,-1.97315 0.505932,-0.40477 1.036473,-0.657 1.592993,-0.75816 0.708306,-0.15172 1.493223,-0.12664 2.353308,0.0757 l 10.092553,3.8707 c 0.55652,0.25296 0.987028,0.6063 1.290593,1.06163 0.758895,-1.51779 1.593831,-2.88325 2.504505,-4.09749 0.860085,-1.01187 1.872219,-1.9479 3.035869,-2.80799 1.163635,-0.86011 2.554119,-1.29059 4.173091,-1.29059 1.113055,0 2.100189,0.2021 2.960267,0.60695 0.80949,0.40476 1.467222,0.93637 1.973154,1.59408 0.45533,0.65773 0.758639,1.41659 0.910432,2.27662 0.151772,0.91067 0.101759,1.84673 -0.151203,2.80799 0.455329,-1.36601 0.581441,-2.68151 0.379074,-3.94628 -0.202367,-1.06246 -0.708982,-2.17571 -1.518471,-3.33936 -0.860078,-1.11305 -2.35166,-1.99798 -4.476578,-2.6557 l 2.8e-5,-34.28238 c 0.860078,0 1.618916,-0.17722 2.276626,-0.53136 0.657704,-0.30356 1.188245,-0.65797 1.592993,-1.06272 0.505925,-0.45534 0.911434,-0.96085 1.214991,-1.51739 -0.404748,0.45535 -0.885269,0.73368 -1.441789,0.83484 -0.556527,0.10115 -1.113154,0.12624 -1.669674,0.0757 -0.607123,-0.0506 -1.264848,-0.17682 -1.973147,-0.37908 -0.505939,-0.2023 -1.037545,-0.43069 -1.594073,-0.68365 -0.505932,-0.25297 -1.037552,-0.50517 -1.594072,-0.75814 -0.607116,-0.30356 -1.238762,-0.58187 -1.896472,-0.83483 -1.467201,-0.65772 -3.162073,-1.39153 -5.084611,-2.20104 z m -4.098577,6.22294 7.361244,2.88358 v 16.07364 c -2.600905,-1.17075 -5.663557,-2.44366 -6.791009,-4.6866 -0.06971,-0.20126 -0.133715,-0.41495 -0.19116,-0.64476 -0.252977,-0.80949 -0.379082,-1.87165 -0.379082,-3.18706 v -1.94616 z m 7.361244,19.75634 v 19.38373 l -7.361244,-2.80797 -0.0043,-10.99128 z m 52.452725,-17.83273 -3.0309,4.575 c 0.15247,0.26691 0.34282,0.4764 0.57155,0.62885 0.22873,0.15257 0.45741,0.28534 0.68613,0.39972 0.26684,0.15256 0.53385,0.26738 0.80069,0.34369 v 5.56078 h -0.0174 l 0.0174,2.64237 c 0.45744,0.0379 0.89565,0.15297 1.31497,0.3437 0.3812,0.1906 0.744,0.41928 1.08709,0.68611 0.12751,0.085 0.25228,0.17264 0.37439,0.26291 0.20644,0.15264 0.40528,0.31281 0.5969,0.48048 0.30498,0.26685 0.59112,0.49554 0.85797,0.68614 l 0.82683,0.74466 -0.46821,0.4184 -0.0148,0.93766 4.61631,-3.88586 0.0113,0.9389 v 3.2289 2.01106 9.3168 l 3.43062,3.20276 c 0.15257,-0.57181 0.47697,-1.16328 0.97254,-1.77321 0.49556,-0.57182 1.01042,-1.12497 1.54409,-1.65867 0.53368,-0.53368 1.0102,-1.0102 1.42953,-1.42955 0.41932,-0.41932 0.62886,-0.72338 0.62886,-0.91398 l -0.45826,0.39972 c -0.30496,0.26684 -0.64735,0.40096 -1.02858,0.40096 -0.38118,-0.0379 -0.72481,-0.19122 -1.0298,-0.45824 l -0.28514,-0.22796 v -6.85871 -2.01105 -1.39966 c -0.9149,-0.0765 -1.71592,-0.36247 -2.40207,-0.85797 -0.68619,-0.49558 -1.29557,-0.95289 -1.82927,-1.37224 l -0.78822,-0.71103 0.10208,-0.0897 0.0635,-0.0572 0.11954,-0.10575 v -10e-4 l 0.81314,-0.73222 0.17556,-0.15799 c 0.26684,-0.1906 0.55301,-0.41931 0.85796,-0.68614 0.30497,-0.26685 0.6282,-0.51469 0.97131,-0.74341 0.34307,-0.26686 0.70586,-0.4955 1.08708,-0.68612 0.41932,-0.1906 0.85754,-0.30561 1.31496,-0.34369 l 0.0572,-6.75917 c 0.19059,-0.11453 0.38097,-0.2474 0.57158,-0.39972 0.19059,-0.19061 0.34263,-0.36185 0.45699,-0.51431 0.15257,-0.15256 0.28661,-0.34408 0.40097,-0.5728 -0.41933,0.22867 -0.89586,0.28629 -1.42954,0.17179 -0.49556,-0.076 -1.08702,-0.32409 -1.77322,-0.74341 -0.68618,-0.45733 -1.52423,-1.20098 -2.51538,-2.23022 l -3.0309,4.575 c 0.15248,0.26691 0.34284,0.4764 0.57156,0.62885 0.22873,0.15257 0.45741,0.28534 0.68613,0.39973 0.26685,0.15256 0.53385,0.26738 0.80069,0.34369 v 7.459 l -0.4184,0.37357 -0.11455,0.10345 -3.93891,3.32928 -0.0126,-0.94639 -0.001,-0.0572 0.001,0.001 v -3.27996 h 0.009 l 0.0486,-8.64148 c 0.1906,-0.11453 0.38096,-0.24742 0.57156,-0.39973 0.19061,-0.19059 0.34265,-0.36181 0.45701,-0.51427 0.15247,-0.15258 0.2866,-0.34409 0.40096,-0.5728 -0.41933,0.22867 -0.89585,0.28631 -1.42953,0.17179 -0.49558,-0.076 -1.08705,-0.32409 -1.77322,-0.74344 -0.68617,-0.45727 -1.52425,-1.20096 -2.51538,-2.23021 z m 3.60247,18.71047 v -0.24531 l 0.0148,-0.69235 -0.98746,0.89035 c -0.50408,0.45452 -1.14309,0.87668 -1.82926,1.37224 -0.68616,0.49551 -1.48717,0.78165 -2.40207,0.85797 v 9.87021 l 3.43064,3.20275 c 0.15248,-0.5718 0.47695,-1.16326 0.97253,-1.77321 0.49555,-0.57183 1.01041,-1.12496 1.54409,-1.65866 0.53368,-0.5337 1.0102,-1.0102 1.42953,-1.42954 0.41933,-0.41933 0.62886,-0.72339 0.62886,-0.91398 l -0.45825,0.39971 c -0.30496,0.26684 -0.64738,0.40097 -1.02858,0.40097 -0.3812,-0.038 -0.72484,-0.19122 -1.02982,-0.45826 l -0.28516,-0.22794 z m -17.62559,-18.70952 -0.34236,0.8575 c -0.1906,0.57181 -0.5719,1.21971 -1.14371,1.944 -0.5337,0.72429 -1.27718,1.41041 -2.23019,2.05848 -0.95302,0.60995 -2.154277,0.99113 -3.602859,1.14369 v 0.85754 8.86711 c 1.519373,0.18392 3.366219,-1.33654 5.203409,-3.12334 v -5.47054 -0.27323 -2.05849 l 4.70846,2.17295 v 7.90733 c -2.43447,0.18538 -3.22097,0.85424 -4.76571,2.19212 -1.83546,2.00926 -4.128198,3.13039 -6.517755,2.97323 0.914902,0.68614 1.371596,1.56348 1.371596,2.63086 v 6.36833 c -0.571813,0.11432 -1.009391,0.32357 -1.314356,0.62854 -0.266848,0.30497 -0.458037,0.61089 -0.572395,0.91584 -0.152525,0.38123 -0.209843,0.79965 -0.171726,1.25711 0.114358,-0.49561 0.286432,-0.81965 0.515156,-0.972 0.266847,-0.19081 0.51431,-0.30431 0.743033,-0.34235 0.228724,-0.0383 0.41992,-0.0209 0.572403,0.0562 l 0.285117,0.0573 0.457916,0.11452 6.881401,2.97323 0.39961,0.22895 c 0,-0.038 0.15296,-0.43855 0.45791,-1.20096 0.30497,-0.72429 0.85727,-1.50492 1.6578,-2.34358 l 3.43114,3.54454 c 0.15248,-0.57181 0.47642,-1.16234 0.97199,-1.77227 0.49557,-0.57181 1.00963,-1.12518 1.54331,-1.65888 0.53369,-0.53368 1.01059,-1.00949 1.42992,-1.42883 0.41933,-0.41934 0.62964,-0.72416 0.62964,-0.91476 l -0.45792,0.39963 c -0.30497,0.26693 -0.66715,0.40066 -1.08648,0.40066 -0.3812,-0.038 -0.72427,-0.19101 -1.02923,-0.45792 l -0.22896,-0.22788 v -0.34344 -9.8355 c 0,-0.41933 0.13383,-0.80063 0.40068,-1.14373 0.26684,-0.38109 0.60991,-0.6095 1.02923,-0.68578 l -0.0573,-0.0573 c -0.41933,-0.11432 -0.76239,-0.34274 -1.02923,-0.68581 -0.22873,-0.34308 -0.34344,-0.72439 -0.34344,-1.14371 v -9.49206 c 0.5718,-0.0763 0.99135,-0.26745 1.2582,-0.57241 0.30497,-0.34308 0.51419,-0.66702 0.62855,-0.97198 0.15252,-0.38121 0.20984,-0.79967 0.17171,-1.25713 -0.11436,0.49559 -0.30447,0.83865 -0.57132,1.02924 -0.22872,0.19081 -0.45815,0.30431 -0.68688,0.34235 -0.22871,0 -0.43795,-0.0188 -0.62855,-0.0572 l -0.22896,-0.11348 -0.45684,-0.11452 -6.88141,-2.97432 z m 2.59275,15.5332 v 13.57174 l -4.65121,-2.11571 v -6.88347 c 0,-1.86643 2.37469,-4.41115 4.65121,-4.57256 z m -14.195567,13.11395 c 0.304965,0.26685 0.648047,0.40026 1.02926,0.40026 0.381206,0 0.724287,-0.13355 1.029252,-0.40026 l 0.457447,-0.3431 c 0,0.1906 -0.209665,0.49558 -0.628988,0.91491 -0.419323,0.41933 -0.895835,0.89586 -1.429524,1.42952 -0.533688,0.49559 -1.048318,1.02926 -1.543889,1.60107 -0.495564,0.60993 -0.819595,1.20081 -0.972077,1.77259 l -3.430861,-3.20213 v -12.75135 c 0,-0.41932 -0.133417,-0.80055 -0.400264,-1.14362 -0.228731,-0.34308 -0.552754,-0.57181 -0.972077,-0.68617 h -0.0572 0.0572 c 0.419323,-0.11452 0.743353,-0.34311 0.972077,-0.68617 0.266847,-0.34308 0.400264,-0.72431 0.400264,-1.14361 v -8.32279 h -2.094974 l 1.065714,-1.7312 h 1.02926 c 0.991143,0 1.81073,-0.32404 2.458784,-0.97205 0.648053,-0.68619 1.181742,-1.42955 1.601072,-2.23007 0.457447,-0.953 0.838653,-2.03947 1.143618,-3.25931 v 6.46143 h 2.57673 l -1.37593,1.7312 h -1.2008 v 8.32279 c 0,0.953 0.476505,1.56295 1.429524,1.82978 -0.953019,0.26684 -1.429524,0.87679 -1.429524,1.82979 v 10.34975 l 0.285906,0.22868 z"
     transform="translate(-45.969849,-107.59775)" /></svg>
