<svg width="180" height="185" viewBox="0 0 180 185" fill="none" xmlns="http://www.w3.org/2000/svg">
<path d="M111.903 37.6326C124.308 55.7603 119.668 80.513 101.537 92.9184C83.4138 105.318 58.6602 100.677 46.2584 82.5485C33.8505 64.4209 38.4896 39.6674 56.6149 27.2659C74.7435 14.8606 99.4981 19.504 111.903 37.6326Z" stroke="#B5B5B5" stroke-width="5"/>
<path d="M86.4918 43.2119C83.0602 39.1039 78.2557 40.2271 73.1761 43.0865L69.0024 36.9872L65.29 39.528L69.3538 45.4664C68.3779 46.1344 67.3934 46.8363 66.4158 47.5343L62.3259 41.556L58.6151 44.095L62.7861 50.1935C61.9936 50.7599 61.2144 51.315 60.445 51.8422L60.4317 51.8235L55.3099 55.3256L58.0241 59.2901C58.0241 59.2901 60.7299 57.3619 60.7189 57.4436C62.223 56.415 63.3099 56.9532 63.9677 57.6091L68.7226 64.5573C68.8269 64.4869 68.965 64.3986 69.1327 64.3147C69.0092 64.3995 68.8761 64.4892 68.7409 64.5835L75.4006 74.3183C75.6585 74.8367 75.8965 75.7817 74.8471 76.5024C74.9234 76.512 72.1479 78.3484 72.1479 78.3484L74.4441 83.287L79.2754 79.9808C80.1752 79.3667 81.0703 78.7766 81.9426 78.1878L86.1652 84.3556L89.8743 81.8185L85.6977 75.715C86.7304 75.0393 87.7214 74.373 88.6829 73.7139L92.8385 79.7904L96.5508 77.2497L92.3384 71.091C98.3351 66.462 101.628 61.9002 98.1595 55.6677C95.368 50.6483 91.7068 50.0615 87.5815 51.6351C88.7378 47.9142 88.2397 45.375 86.4918 43.2119ZM90.3233 59.9564C93.4797 64.565 85.2274 69.4418 82.7129 71.1659L77.1212 62.992C79.6385 61.2704 87.0334 55.1479 90.3233 59.9564ZM80.7061 49.6065C83.5748 53.8014 76.6568 57.8165 74.5611 59.2508L69.489 51.8378C71.5847 50.4036 77.7123 45.2322 80.7061 49.6065Z" fill="#B5B5B5"/>
<path d="M68.6341 182.28H108.484C120.871 182.28 145.688 176.942 150.269 144.365L155.686 109.21H175.374C148.615 40.3178 133.874 3.30163 74.4951 2.64088C-20.6529 1.58211 -18.0505 181.596 68.6341 182.28Z" stroke="#B5B5B5" stroke-width="5"/>
<path d="M149.987 144.611C131.278 143.777 122.386 139.209 116.518 133.49" stroke="#B5B5B5" stroke-width="5"/>
</svg>
