<svg width="196" height="202" viewBox="0 0 196 202" fill="none" xmlns="http://www.w3.org/2000/svg">
<path d="M144.887 124.52L77.8784 56.8067C73.4089 52.2903 66.1471 52.2324 61.6585 56.6774L8.83124 108.992C4.34268 113.437 4.32715 120.701 8.79657 125.218L75.8047 192.931C80.2741 197.447 87.536 197.505 92.0246 193.06L144.852 140.746C149.34 136.301 149.356 129.036 144.887 124.52Z" stroke="#B5B5B5" stroke-width="5"/>
<path d="M96.5591 105.343C93.182 101.93 88.5957 99.9919 83.8093 99.9541C79.0228 99.9162 74.4282 101.782 71.0361 105.141C68.885 107.275 67.3101 109.92 66.4575 112.832C65.6048 115.744 65.5018 118.828 66.1582 121.799L57.1535 130.716C56.2538 131.608 55.5393 132.668 55.0509 133.838C54.5624 135.008 54.3096 136.263 54.3069 137.533C54.3041 138.804 54.5515 140.063 55.0349 141.241C55.5182 142.418 56.2281 143.49 57.124 144.395C58.9332 146.223 61.39 147.261 63.9541 147.282C66.5182 147.302 68.9796 146.302 70.7967 144.503L79.8014 135.586C82.7645 136.273 85.8488 136.201 88.7683 135.378C91.6878 134.554 94.3481 133.006 96.5027 130.876C99.8948 127.517 101.806 122.939 101.817 118.151C101.827 113.363 99.9362 108.755 96.5591 105.343Z" stroke="#B5B5B5" stroke-width="5"/>
<path d="M163.916 38.642C162.011 36.717 159.974 34.9992 157.834 33.4878L156.045 34.7882L157.047 41.269L153.94 42.1627L154.512 47.9545C166.964 60.537 166.921 80.5743 154.416 92.9578L133.828 113.346L143.191 122.808L163.78 102.42C181.367 85.0038 181.428 56.3381 163.916 38.642ZM123.297 29.925L119.176 26.9816C119.176 26.9817 119.176 26.9816 119.176 26.9816C112.211 28.986 105.648 32.7011 100.162 38.1335L79.574 58.5221L88.9368 67.9834L109.525 47.5949C114.242 42.924 120.03 40.0387 126.078 38.9304L121.055 33.3263L123.297 29.925Z" fill="#B5B5B5"/>
<path d="M166.778 7.8138C153.231 4.56946 139.154 7.87525 128.561 16.1548L133.471 17.3591L132.66 21.3581L139.396 24.701C147.961 19.2804 158.987 18.1063 169.084 22.5094L166.399 17.3344L168.944 15.3462L165.605 9.6897L166.778 7.8138Z" fill="#B5B5B5"/>
<path d="M189.26 13.6823L176.201 26.7782L195.624 22.4889L189.26 13.6823Z" fill="#B5B5B5"/>
<path d="M175.388 31.9707L190.313 30.0609L186.927 40.5648L175.388 31.9707Z" fill="#B5B5B5"/>
<path d="M123.354 14.5841L117.863 4.29363L123.44 1.05063L123.354 14.5841Z" fill="#B5B5B5"/>
<path d="M117.94 18.1959L108.758 18.0529L110.874 10.9181L117.94 18.1959Z" fill="#B5B5B5"/>
</svg>
