<?xml version="1.0" encoding="UTF-8" standalone="no"?>
<!-- Created with Inkscape (http://www.inkscape.org/) -->

<svg
   width="101.29291mm"
   height="47.322441mm"
   viewBox="0 0 101.29291 47.322441"
   version="1.1"
   id="svg5"
   xml:space="preserve"
   xmlns="http://www.w3.org/2000/svg"
   xmlns:svg="http://www.w3.org/2000/svg"><defs
     id="defs2" /><g
     id="layer1"
     transform="translate(-30.724144,-36.643609)"><path
       style="fill:#ffffff;stroke-width:0.120416;fill-opacity:1"
       d="m 50.823132,83.695114 c -0.07937,-0.149019 -0.251193,-0.460593 -0.381818,-0.692398 -0.130625,-0.231801 -0.482548,-0.882051 -0.782051,-1.445 -0.299502,-0.562944 -0.56204,-1.045069 -0.583417,-1.071379 -0.02138,-0.02631 -1.032908,-0.09126 -2.247848,-0.144332 -2.830737,-0.123651 -3.359115,-0.2963 -4.939786,-1.61408 -0.317767,-0.264915 -0.688022,-0.659211 -0.822789,-0.876211 -0.134768,-0.217 -0.315622,-0.46514 -0.4019,-0.551416 -0.178521,-0.178525 -0.789625,-1.464661 -1.038134,-2.184871 -0.138073,-0.400154 -0.166199,-3.19192 -0.166199,-16.497074 0,-17.975409 -0.06828,-16.594185 0.909938,-18.407735 0.573767,-1.063724 1.795592,-2.38282 2.645901,-2.856543 1.135306,-0.6325 1.720955,-0.711863 5.242474,-0.710448 3.48391,0.0014 3.755077,0.03746 5.001362,0.664941 0.789187,0.397341 2.219411,1.829092 2.722201,2.725096 0.19833,0.35344 0.48738,0.994833 0.642335,1.425324 0.269692,0.749252 0.285389,0.97829 0.367252,5.358536 0.2118,11.332886 0.05115,27.378892 -0.285723,28.538738 -0.29858,1.027997 -1.128858,2.434553 -1.9378,3.282774 l -0.489426,0.513196 0.570433,1.112431 c 0.313738,0.611837 0.70318,1.347877 0.865425,1.635648 0.162244,0.287771 0.489081,0.870285 0.726303,1.294478 l 0.431312,0.771261 h -2.951864 c -2.938152,0 -2.952533,-0.0014 -3.096181,-0.270936 z M 50.357836,74.13767 c 0.347414,-0.139007 0.575947,-0.346008 0.795373,-0.720429 l 0.307892,-0.525379 0.01987,-14.301539 0.01987,-14.301548 -0.284497,-0.533553 c -0.156473,-0.293451 -0.400317,-0.629742 -0.541875,-0.747313 -0.430756,-0.357754 -1.376599,-0.500393 -2.919996,-0.440358 -1.720307,0.06692 -2.157567,0.261606 -2.598631,1.157023 l -0.277914,0.564201 -0.06021,7.164789 c -0.08442,10.046305 0.03139,20.998467 0.228426,21.60067 0.166748,0.50965 0.749725,1.117697 1.146887,1.196209 0.137671,0.02722 1.021387,0.05686 1.963812,0.06588 1.328153,0.0127 1.823128,-0.02744 2.200982,-0.178652 z m 34.765594,2.633071 -1.772384,-1.633159 v -1.767605 c 0,-0.972187 0.03563,-3.392749 0.07917,-5.37903 l 0.07917,-3.611424 0.553014,-0.159242 c 0.546806,-0.157452 1.941783,-0.804097 2.058221,-0.954095 0.03313,-0.04265 0.212799,-0.174734 0.399302,-0.293492 0.468776,-0.298516 0.804862,-0.596104 0.804862,-0.712674 0,-0.202204 -2.681809,-1.22951 -3.549259,-1.359592 -0.604338,-0.09063 -0.995876,0.08095 -1.472803,0.645408 -0.146084,0.172894 -0.289027,0.289377 -0.317649,0.258853 -0.105706,-0.112738 0.352111,-1.303581 0.643468,-1.673747 0.165572,-0.21036 0.531337,-0.519976 0.812813,-0.688033 l 0.511767,-0.305566 v -4.423387 -4.423391 l -0.582451,-0.272802 c -0.693732,-0.324927 -1.383495,-0.937311 -1.300208,-1.154352 0.07744,-0.201813 1.292612,-2.147956 1.390226,-2.22651 0.04114,-0.03313 0.390559,-0.534349 0.776458,-1.113855 0.385904,-0.579502 0.758322,-1.053644 0.827591,-1.053644 0.06927,0 0.4842,0.288909 0.92206,0.642017 1.865028,1.504037 2.760959,1.980418 3.929875,2.089574 0.42888,0.04005 0.779781,0.100385 0.779781,0.134082 0,0.03368 -0.270937,0.347742 -0.602085,0.697878 l -0.602085,0.636614 -4.55e-4,2.566059 c -2.41e-4,1.411335 -0.034,3.324687 -0.075,4.251894 l -0.07456,1.685834 1.128642,0.404477 c 0.620754,0.222457 1.291206,0.477774 1.489892,0.567364 0.198691,0.08959 0.916672,0.377629 1.595521,0.640087 l 1.234271,0.477204 -1.9e-5,-4.476439 -1.3e-5,-4.47644 -0.74253,-0.365182 c -0.408391,-0.200852 -0.853082,-0.513255 -0.988197,-0.694228 -0.282433,-0.378348 -0.310477,-0.306189 0.78166,-2.011211 1.172102,-1.829865 1.856822,-2.761078 2.032889,-2.764709 0.09934,-0.0018 0.376979,0.172125 0.616967,0.387055 1.834585,1.643021 3.040584,2.291791 4.289998,2.307798 0.41393,0.0053 0.75216,0.03673 0.75163,0.06986 -4.6e-4,0.03313 -0.29855,0.384229 -0.66227,0.780249 l -0.66132,0.720047 -2.4e-4,1.688287 c -1.2e-4,0.928559 -0.0355,2.853316 -0.0785,4.277244 l -0.0782,2.588956 -0.674074,0.218653 c -0.661273,0.214497 -1.649762,0.773604 -2.11182,1.194484 -0.128471,0.11702 -0.41211,0.334625 -0.630302,0.483563 -0.526563,0.359433 -0.570978,0.523972 -0.181665,0.672964 0.177678,0.068 0.810738,0.313845 1.406797,0.546319 1.43405,0.559304 2.11378,0.731843 2.500654,0.634749 0.34503,-0.0866 0.80973,-0.475626 1.02814,-0.860733 0.27787,-0.489921 0.15454,0.453798 -0.14272,1.092192 -0.20553,0.441382 -0.44444,0.716601 -0.86239,0.993436 -0.31795,0.210601 -0.656304,0.382913 -0.751894,0.382913 -0.14942,0 -0.16691,0.688421 -0.12466,4.906977 0.0345,3.446522 0.0912,4.983068 0.1905,5.162626 0.0865,0.156401 0.353624,0.309098 0.688114,0.393322 0.47935,0.120701 0.60544,0.10774 1.02269,-0.105128 0.57057,-0.291084 0.95261,-0.33397 0.70486,-0.07913 -0.15874,0.163287 -1.86129,2.029726 -2.591134,2.840555 -0.707055,0.78552 -0.866232,0.990027 -1.325778,1.703356 -0.251239,0.389981 -0.521529,0.709529 -0.600651,0.710107 -0.131734,9.1e-4 -0.403098,-0.234045 -2.064665,-1.788067 -0.308584,-0.288613 -0.737173,-0.660809 -0.952416,-0.827104 L 94.18868,75.267469 94.17239,71.879995 c -0.009,-1.863117 -0.04961,-4.247584 -0.09031,-5.298824 l -0.07406,-1.911346 -1.264377,-0.474574 c -3.315424,-1.244411 -3.734916,-1.372972 -3.855854,-1.181691 -0.06695,0.105892 -0.114967,2.155675 -0.116046,4.954114 l -0.0018,4.773481 0.484105,0.193703 c 0.646804,0.258798 1.178755,0.243515 1.656201,-0.04759 0.462259,-0.281837 0.50925,-0.290152 0.507693,-0.08986 -4.55e-4,0.08279 -0.339317,0.50595 -0.752605,0.94036 -2.481035,2.60783 -2.851123,3.045034 -3.404355,4.021731 l -0.36502,0.644396 z m -15.018212,1.274921 c -0.298031,-0.134086 -1.381781,-0.568683 -2.408332,-0.965764 -6.104754,-2.361389 -6.13205,-2.367428 -6.994148,-1.547337 l -0.50179,0.477341 0.06674,-0.411245 c 0.109874,-0.677074 0.655516,-1.469885 1.298271,-1.886377 l 0.591763,-0.38345 v -3.288742 c 0,-3.60006 -0.04057,-3.861516 -0.738904,-4.761653 -0.417401,-0.538027 -0.421868,-0.579042 -0.06307,-0.579042 0.541109,0 2.164167,-0.482994 3.015005,-0.89721 0.702446,-0.34198 1.979223,-1.214701 2.964879,-2.026599 0.905848,-0.746157 2.613596,-1.939631 3.20668,-2.241014 0.440329,-0.223764 1.099338,-0.429199 1.652816,-0.515249 l 0.920503,-0.143107 v -2.609072 c 0,-1.434996 -0.03536,-3.107514 -0.07862,-3.716707 l -0.07862,-1.107625 -0.493357,-0.224719 c -1.407639,-0.641161 -4.582426,-1.816226 -4.741822,-1.755062 -0.160007,0.0614 -0.172354,0.415026 -0.09767,2.797314 0.04702,1.499863 0.134838,2.98723 0.195151,3.305262 0.127732,0.673529 0.599453,1.442805 1.024078,1.670059 0.444251,0.237758 0.364242,0.398543 -0.150286,0.302017 -0.737842,-0.13842 -1.129286,-0.406644 -2.181109,-1.494544 -0.551588,-0.570504 -1.351945,-1.397594 -1.778573,-1.837975 -0.865987,-0.893902 -1.582916,-1.290715 -2.501148,-1.384355 -0.931689,-0.09501 -0.973709,-0.123292 -0.643396,-0.433022 0.410663,-0.385075 0.587874,-0.767629 0.673555,-1.454029 l 0.07453,-0.597087 1.083749,-0.26132 c 1.127403,-0.271847 2.109028,-0.703835 2.82979,-1.245316 1.24642,-0.936392 2.265798,-2.164746 2.955909,-3.561885 0.191925,-0.388553 0.424998,-0.735644 0.517942,-0.771307 0.09294,-0.03568 0.365364,0.0032 0.60538,0.08668 0.594325,0.206369 2.547634,0.958724 2.844726,1.095701 0.310745,0.143276 3.311547,1.240733 4.63604,1.695501 1.216325,0.41763 1.573361,0.378567 2.133961,-0.233462 0.215312,-0.235068 0.421057,-0.397814 0.457212,-0.36166 0.03614,0.03614 -0.0036,0.330412 -0.08866,0.653909 -0.175634,0.669124 -1.053625,1.666128 -1.584588,1.799391 l -0.315843,0.07927 v 4.96617 4.966164 l 0.340915,0.469632 c 0.187504,0.258297 0.485534,0.546519 0.662292,0.640496 0.176755,0.09398 0.320708,0.202355 0.319885,0.240835 -9.11e-4,0.0385 -0.188761,0.191259 -0.417644,0.339509 -0.830008,0.537599 -0.818875,0.456479 -0.881254,6.422388 l -0.05612,5.367346 0.425517,0.201918 c 0.53561,0.254165 1.031725,0.256026 1.656051,0.0062 0.853155,-0.341366 0.818015,-0.285714 -1.139738,1.804979 -1.232086,1.315742 -2.588179,3.04042 -2.592948,3.297698 -0.0014,0.08279 -0.05397,0.150521 -0.116533,0.150521 -0.134428,0 -1.234316,-0.998902 -2.101725,-1.908755 -0.337875,-0.354409 -0.813537,-0.802855 -1.05703,-0.996544 l -0.442711,-0.352166 -0.498896,0.695502 c -0.274391,0.382527 -0.720734,1.142551 -0.99187,1.688943 -0.316813,0.638439 -0.561242,0.990395 -0.684018,0.984929 -0.105074,-0.0047 -0.434887,-0.118212 -0.732918,-0.252303 z m 2.972319,-11.536324 0.07785,-6.542493 -0.652061,0.08504 c -1.775685,0.231587 -3.32836,1.553081 -4.435127,3.774767 l -0.375061,0.752883 0.03198,3.386091 0.03198,3.386091 2.047082,0.773209 c 2.743181,1.036135 2.995261,1.118634 3.102965,1.015514 0.0509,-0.04873 0.127579,-3.032729 0.170396,-6.631105 z m 38.451003,11.001224 c -4.58412,-1.818018 -6.09958,-2.33992 -6.8878,-2.372061 -0.51029,-0.0208 -0.61544,0.02426 -1.06958,0.458595 l -0.50365,0.481665 0.075,-0.400968 c 0.18042,-0.963885 0.89732,-1.88173 1.71159,-2.191311 l 0.2923,-0.111135 v -5.64449 -5.644496 l -0.36517,-0.504102 c -0.20084,-0.277254 -0.49887,-0.56502 -0.66229,-0.639477 -0.39423,-0.179622 -0.37479,-0.360167 0.0669,-0.621063 0.6825,-0.403167 0.75042,-0.63311 0.85243,-2.886062 0.0515,-1.137704 0.0969,-3.220037 0.10091,-4.627402 0.007,-2.515378 0.0115,-2.558855 0.25965,-2.558855 0.61506,0 2.63859,-0.700896 3.3601,-1.163851 1.35738,-0.870968 2.23779,-1.874116 3.2401,-3.69182 0.5374,-0.974576 0.74403,-1.165548 1.01647,-0.939441 0.21735,0.180377 4.93353,2.006187 7.38114,2.857508 1.08387,0.376992 1.27537,0.410461 1.69772,0.296732 0.287,-0.07728 0.58608,-0.271756 0.75311,-0.489698 0.48694,-0.635376 0.5774,-0.352329 0.21159,0.662028 -0.16239,0.450308 -1.08441,1.357535 -1.48076,1.457015 -0.28024,0.07033 -0.29589,0.120206 -0.29317,0.93427 0.004,1.132502 0.15061,1.718944 0.52935,2.114269 0.17088,0.178356 0.31069,0.354382 0.31069,0.391165 0,0.03677 -0.30708,0.09857 -0.68242,0.137309 -1.45145,0.149806 -2.73745,1.097676 -4.92293,3.628573 -1.9593,2.268949 -2.62014,2.935724 -3.54631,3.578141 -0.76919,0.53353 -1.86776,1.065295 -2.20078,1.065295 -0.13757,0 -0.18411,0.477109 -0.24861,2.548164 -0.0987,3.170274 -0.10051,6.34986 -0.004,7.152934 l 0.0733,0.609648 1.88245,0.70192 c 1.03536,0.386053 2.22113,0.827268 2.63507,0.980474 l 0.7526,0.278559 v -1.511715 c 0,-1.61408 -0.13968,-2.161974 -0.64062,-2.512847 -0.13639,-0.09552 -0.22415,-0.191513 -0.19503,-0.213304 0.0291,-0.0218 0.40174,-0.108528 0.82803,-0.192757 1.35445,-0.267613 2.17649,-0.814652 3.25887,-2.168664 1.17383,-1.468411 1.81161,-2.075538 2.50027,-2.380094 0.98958,-0.437637 1.35956,-0.319329 0.62875,0.201058 -0.19969,0.142188 -0.44663,0.420105 -0.54875,0.61759 -0.18774,0.363039 -0.33651,2.060347 -0.48659,5.551128 l -0.0711,1.654386 -0.49951,0.119891 c -1.50418,0.361036 -3.31122,1.174041 -3.88801,1.74926 -0.0755,0.07528 -0.29224,0.269425 -0.48167,0.431429 -0.51133,0.437295 -1.2591,1.487935 -1.85697,2.609077 -0.3127,0.586401 -0.60474,0.991816 -0.71277,0.989472 -0.10065,-0.0023 -1.0771,-0.358551 -2.16988,-0.791942 z m 0.49005,-18.054864 c 1.30242,-0.865849 2.75738,-2.570388 3.36336,-3.940307 0.29919,-0.676364 0.47956,-1.839978 0.48068,-3.100936 l 9.1e-4,-1.025991 -2.1976,-0.859053 c -2.58934,-1.012191 -2.9726,-1.141909 -3.11456,-1.054171 -0.11978,0.07403 -0.14634,9.156052 -0.0296,10.127597 0.0732,0.609016 0.0819,0.620567 0.38222,0.506378 0.16904,-0.06427 0.67062,-0.358351 1.11461,-0.653517 z"
       id="path3826" /></g></svg>
